<?xml version="1.0" encoding="UTF-8" standalone="no"?><!DOCTYPE svg PUBLIC "-//W3C//DTD SVG 1.1//EN" "http://www.w3.org/Graphics/SVG/1.1/DTD/svg11.dtd"><svg width="100%" height="100%" viewBox="0 0 59 59" version="1.1" xmlns="http://www.w3.org/2000/svg" xmlns:xlink="http://www.w3.org/1999/xlink" xml:space="preserve" style="fill-rule:evenodd;clip-rule:evenodd;stroke-linecap:round;stroke-linejoin:round;stroke-miterlimit:3;"><path id="shape33.-1" d="M4.86,57.375l48.78,0c2.048,-0.002 3.733,-1.687 3.735,-3.735l0,-48.78c-0.002,-2.048 -1.687,-3.733 -3.735,-3.735l-48.78,0c-2.048,0.002 -3.733,1.687 -3.735,3.735l0,48.78c0.002,2.048 1.687,3.733 3.735,3.735Z" style="fill:#fff;stroke:#000;stroke-width:2.25px;"/><path id="shape24.-3" d="M25.53,1.854l-6.502,6.502l10.507,10.508l10.508,-10.508l-6.503,-6.502l-8.01,0Z" style="stroke:#000;stroke-width:0.18px;"/><path id="shape25.-5" d="M33.538,56.617l6.502,-6.503l-10.507,-10.507l-10.508,10.507l6.503,6.503l8.01,0Z" style="stroke:#000;stroke-width:0.18px;"/><rect id="shape26.-7" x="42.962" y="22.145" width="14.698" height="14.698" style="stroke:#000;stroke-width:0.18px;"/><path id="shape28.-9" d="M8.435,21.398l0,-10.917c0,-0.001 0,-0.003 0,-0.004c0,-1.162 1.203,-2.119 2.667,-2.121l0.81,0" style="fill:none;stroke:#000;stroke-width:3.19px;"/><path id="shape29.-15" d="M36.519,8.354l11.625,0c0.002,0 0.003,0 0.004,0c1.162,0 2.118,1.088 2.12,2.412l0,3.801" style="fill:none;stroke:#000;stroke-width:3.01px;"/><path id="shape30.-20" d="M42.962,29.492l-18.63,0.008" style="fill:none;stroke:#000;stroke-width:2.81px;"/><path id="shape31.-25" d="M50.311,36.843l0,11.34c-0.002,1.086 -1.098,1.979 -2.43,1.981l-0.412,0" style="fill:none;stroke:#000;stroke-width:2.94px;"/><path id="shape32.-31" d="M22.264,50.293l-11.408,0c-0.002,0 -0.003,0 -0.004,0c-1.176,0 -2.144,-0.957 -2.146,-2.122l0,-3.06" style="fill:none;stroke:#000;stroke-width:2.83px;"/><path id="shape42.-36" d="M1.56,33.828c1.48,2.326 4.053,3.739 6.81,3.739c4.425,0 8.068,-3.641 8.07,-8.066c-0.002,-4.426 -3.645,-8.067 -8.07,-8.067c-2.757,0 -5.33,1.413 -6.81,3.739l0,8.655Z" style="stroke:#000;stroke-width:0.18px;"/><path d="M18.961,8.362l-7.513,5.164l0.029,-10.37l7.484,5.206Z"/><path d="M40.119,50.116l7.499,-5.185l0,10.37l-7.499,-5.185Z"/><path d="M16.54,29.512l7.498,-5.185l0,10.37l-7.498,-5.185Z"/><path d="M50.246,22.042l-5.185,-7.498l10.37,0l-5.185,7.498Z"/><path d="M8.58,37.583l5.185,7.498l-10.37,0l5.185,-7.498Z"/></svg>